#!OML:ASF E:\Style4\Style4.ASF
:FULLY-SPECIFIED
:DEGREES
495
root -0.0194221 16.6756 -2.15109 10.1789 -1.22624 2.65368
lowerback 11.9448 1.70306 -2.7561
upperback 2.14268 1.87416 -0.583207
thorax -4.51686 0.958506 0.650665
lowerneck 5.46222 -3.84867 -6.85448
upperneck -1.70068 -5.42873 5.67458
head -1.13216 -2.77293 3.1644
rclavicle -2.68359e-015 -6.95746e-015
rhumerus -17.2076 11.0383 -53.6817
rradius 83.9323
rwrist -48.7482
rhand -16.8214 26.0025
rfingers 7.12502
rthumb 9.40766 -3.76752
lclavicle -2.68359e-015 -6.95746e-015
lhumerus -21.5379 -11.2718 51.6381
lradius 89.728
lwrist 49.3658
lhand -7.57181 20.7184
lfingers 7.12502
lthumb 18.3208 49.8756
rfemur -39.0502 0.050271 15.2322
rtibia 58.066
rfoot -26.4844 -15.1058
rtoes -13.3706
lfemur -37.6853 -0.695624 -21.9934
ltibia 56.5604
lfoot -27.3824 7.52202
ltoes -15.5912
496
root -0.0177144 16.6821 -2.14449 10.2981 -1.26414 2.6201
lowerback 11.8029 1.71983 -2.75239
upperback 2.09513 1.90203 -0.565946
thorax -4.48978 0.972564 0.665273
lowerneck 5.50629 -3.83909 -6.91004
upperneck -1.7421 -5.41975 5.73904
head -1.15117 -2.76958 3.19922
rclavicle -1.86858e-014 1.05356e-014
rhumerus -17.4327 10.2816 -53.0021
rradius 83.6961
rwrist -49.2137
rhand -16.708 25.7749
rfingers 7.12502
rthumb 9.51705 -3.99013
lclavicle -1.86858e-014 1.05356e-014
lhumerus -21.8408 -10.0792 51.1149
lradius 89.4392
lwrist 49.7601
lhand -6.56683 20.6512
lfingers 7.12502
lthumb 19.2874 49.7148
rfemur -39.1145 0.0931495 15.2532
rtibia 57.9689
rfoot -26.4455 -15.1289
rtoes -13.3288
lfemur -37.7372 -0.639282 -21.9694
ltibia 56.4523
lfoot -27.3255 7.5227
ltoes -15.6381
497
root -0.0154912 16.6889 -2.13891 10.3604 -1.2708 2.65681
lowerback 11.7403 1.72916 -2.78402
upperback 2.06441 1.91137 -0.582922
thorax -4.48812 0.977822 0.665052
lowerneck 5.4845 -3.85747 -6.88545
upperneck -1.72396 -5.44217 5.72167
head -1.14084 -2.78048 3.18777
rclavicle 1.2921e-015 5.76476e-015
rhumerus -17.7188 9.49279 -52.3937
rradius 83.4414
rwrist -49.5978
rhand -16.6078 25.7032
rfingers 7.12502
rthumb 9.6138 -4.05741
lclavicle 1.2921e-015 5.76476e-015
lhumerus -22.0203 -9.03398 50.5376
lradius 89.0983
lwrist 50.1409
lhand -5.85794 20.851
lfingers 7.12502
lthumb 19.9689 49.8449
rfemur -39.1178 0.0842717 15.1978
rtibia 57.8659
rfoot -26.4159 -15.0939
rtoes -13.4589
lfemur -37.7346 -0.637388 -22.0215
ltibia 56.346
lfoot -27.2856 7.67642
ltoes -16.1128
498
root -0.0125179 16.6952 -2.13065 10.4258 -1.22361 2.72861
lowerback 11.6274 1.71563 -2.8301
upperback 2.06468 1.89102 -0.605136
thorax -4.4255 0.967874 0.674123
lowerneck 5.33952 -3.87518 -6.87753
upperneck -1.58514 -5.45961 5.73073
head -1.06885 -2.78859 3.18121
rclavicle -1.42131e-014 1.21259e-014
rhumerus -18.0242 8.71252 -51.8009
rradius 83.1603
rwrist -49.9687
rhand -16.4325 25.7456
rfingers 7.12502
rthumb 9.7829 -4.00717
lclavicle -1.42131e-014 1.21259e-014
lhumerus -22.212 -8.0889 49.9457
lradius 88.7842
lwrist 50.4679
lhand -5.71204 21.0384
lfingers 7.12502
lthumb 20.1091 50.0177
rfemur -39.0927 0.00810399 15.1125
rtibia 57.7592
rfoot -26.3922 -15.0882
rtoes -13.3558
lfemur -37.7116 -0.68449 -22.106
ltibia 56.2393
lfoot -27.3319 7.79078
ltoes -16.4805
499
root -0.00936555 16.7033 -2.12182 10.4381 -1.12091 2.61859
lowerback 11.615 1.67203 -2.68015
upperback 2.04887 1.85321 -0.581379
thorax -4.43005 0.947513 0.620575
lowerneck 5.30587 -3.86288 -6.89738
upperneck -1.51327 -5.4426 5.79608
head -1.03874 -2.78123 3.20416
rclavicle 2.90226e-014 2.18663e-015
rhumerus -18.3584 8.00652 -51.2257
rradius 82.8888
rwrist -50.4462
rhand -16.2464 25.7624
rfingers 7.12502
rthumb 9.96242 -3.98185
lclavicle 2.90226e-014 2.18663e-015
lhumerus -22.5336 -7.22403 49.3177
lradius 88.4022
lwrist 50.748
lhand -5.30173 20.8964
lfingers 7.12502
lthumb 20.5035 49.8337
rfemur -38.9597 -0.0499437 15.2394
rtibia 57.6331
rfoot -26.4052 -15.0813
rtoes -13.208
lfemur -37.6506 -0.735115 -21.9838
ltibia 56.1576
lfoot -27.3151 7.79309
ltoes -16.6566
500
root -0.00658716 16.7094 -2.11395 10.4225 -1.07497 2.51674
lowerback 11.6866 1.6638 -2.57485
upperback 2.00046 1.85362 -0.548497
thorax -4.51813 0.947483 0.592786
lowerneck 5.3703 -3.86775 -6.85364
upperneck -1.51708 -5.45079 5.76014
head -1.05283 -2.78566 3.18608
rclavicle -1.5704e-014 7.95139e-015
rhumerus -18.7732 7.31888 -50.6613
rradius 82.6221
rwrist -50.9679
rhand -16.1385 25.8141
rfingers 7.12502
rthumb 10.0666 -3.92512
lclavicle -1.5704e-014 7.95139e-015
lhumerus -23.0705 -6.67625 48.6969
lradius 88.2614
lwrist 51.2424
lhand -5.22123 20.765
lfingers 7.12502
lthumb 20.5808 49.694
rfemur -38.8354 -0.0685822 15.3502
rtibia 57.5302
rfoot -26.53 -15.0112
rtoes -12.9475
lfemur -37.5746 -0.751935 -21.8768
ltibia 56.0928
lfoot -27.2722 7.78766
ltoes -16.6446
